<svg width="265" height="132" viewBox="0 0 265 132" fill="none" xmlns="http://www.w3.org/2000/svg">
<path d="M18.0005 95.4115H19.9291V97.3401H18.0005V95.4115ZM18.0005 93.4829H19.9291V95.4115H18.0005V93.4829ZM18.0005 91.5544H19.9291V93.4829H18.0005V91.5544ZM18.0005 89.6258H19.9291V91.5544H18.0005V89.6258ZM18.0005 87.6972H19.9291V89.6258H18.0005V87.6972ZM18.0005 85.7687H19.9291V87.6972H18.0005V85.7687ZM19.9291 85.7687H21.8576V87.6972H19.9291V85.7687ZM19.9291 83.8401H21.8576V85.7687H19.9291V83.8401ZM19.9291 81.9115H21.8576V83.8401H19.9291V81.9115ZM19.9291 79.9829H21.8576V81.9115H19.9291V79.9829ZM18.0005 79.9829H19.9291V81.9115H18.0005V79.9829ZM18.0005 78.0544H19.9291V79.9829H18.0005V78.0544ZM18.0005 81.9115H19.9291V83.8401H18.0005V81.9115ZM18.0005 83.8401H19.9291V85.7687H18.0005V83.8401ZM19.9291 78.0544H21.8576V79.9829H19.9291V78.0544ZM19.9291 87.6972H21.8576V89.6258H19.9291V87.6972ZM19.9291 89.6258H21.8576V91.5544H19.9291V89.6258ZM19.9291 91.5544H21.8576V93.4829H19.9291V91.5544ZM19.9291 93.4829H21.8576V95.4115H19.9291V93.4829ZM19.9291 95.4115H21.8576V97.3401H19.9291V95.4115ZM21.8576 81.9115H23.7862V83.8401H21.8576V81.9115ZM21.8576 83.8401H23.7862V85.7687H21.8576V83.8401ZM23.7862 83.8401H25.7148V85.7687H23.7862V83.8401ZM23.7862 85.7687H25.7148V87.6972H23.7862V85.7687ZM25.7148 85.7687H27.6433V87.6972H25.7148V85.7687ZM25.7148 87.6972H27.6433V89.6258H25.7148V87.6972ZM27.6433 85.7687H29.5719V87.6972H27.6433V85.7687ZM27.6433 83.8401H29.5719V85.7687H27.6433V83.8401ZM29.5719 83.8401H31.5005V85.7687H29.5719V83.8401ZM29.5719 81.9115H31.5005V83.8401H29.5719V81.9115ZM31.5005 78.0544H33.4291V79.9829H31.5005V78.0544ZM31.5005 79.9829H33.4291V81.9115H31.5005V79.9829ZM31.5005 81.9115H33.4291V83.8401H31.5005V81.9115ZM31.5005 83.8401H33.4291V85.7687H31.5005V83.8401ZM31.5005 85.7687H33.4291V87.6972H31.5005V85.7687ZM31.5005 87.6972H33.4291V89.6258H31.5005V87.6972ZM31.5005 89.6258H33.4291V91.5544H31.5005V89.6258ZM31.5005 91.5544H33.4291V93.4829H31.5005V91.5544ZM31.5005 93.4829H33.4291V95.4115H31.5005V93.4829ZM31.5005 95.4115H33.4291V97.3401H31.5005V95.4115ZM33.4291 95.4115H35.3576V97.3401H33.4291V95.4115ZM33.4291 93.4829H35.3576V95.4115H33.4291V93.4829ZM33.4291 91.5544H35.3576V93.4829H33.4291V91.5544ZM33.4291 89.6258H35.3576V91.5544H33.4291V89.6258ZM33.4291 87.6972H35.3576V89.6258H33.4291V87.6972ZM33.4291 85.7687H35.3576V87.6972H33.4291V85.7687ZM33.4291 83.8401H35.3576V85.7687H33.4291V83.8401ZM33.4291 81.9115H35.3576V83.8401H33.4291V81.9115ZM33.4291 79.9829H35.3576V81.9115H33.4291V79.9829ZM33.4291 78.0544H35.3576V79.9829H33.4291V78.0544ZM21.8576 79.9829H23.7862V81.9115H21.8576V79.9829ZM23.7862 81.9115H25.7148V83.8401H23.7862V81.9115ZM25.7148 83.8401H27.6433V85.7687H25.7148V83.8401ZM27.6433 81.9115H29.5719V83.8401H27.6433V81.9115ZM29.5719 79.9829H31.5005V81.9115H29.5719V79.9829ZM48.8727 97.3401H46.9441V95.4115H48.8727V97.3401ZM48.8727 95.4115H46.9441V93.4829H48.8727V95.4115ZM46.9441 95.4115H45.0156V93.4829H46.9441V95.4115ZM45.0156 97.3401H43.087V95.4115H45.0156V97.3401ZM43.087 97.3401H41.1584V95.4115H43.087V97.3401ZM41.1584 97.3401H39.2298V95.4115H41.1584V97.3401ZM41.1584 95.4115H39.2298V93.4829H41.1584V95.4115ZM43.087 95.4115H41.1584V93.4829H43.087V95.4115ZM39.2298 95.4115H37.3013V93.4829H39.2298V95.4115ZM39.2298 93.4829H37.3013V91.5544H39.2298V93.4829ZM39.2298 85.7687H37.3013V83.8401H39.2298V85.7687ZM41.1584 85.7687H39.2298V83.8401H41.1584V85.7687ZM41.1584 93.4829H39.2298V91.5544H41.1584V93.4829ZM43.087 85.7687H41.1584V83.8401H43.087V85.7687ZM41.1584 83.8401H39.2298V81.9115H41.1584V83.8401ZM43.087 83.8401H41.1584V81.9115H43.087V83.8401ZM45.0156 83.8401H43.087V81.9115H45.0156V83.8401ZM46.9441 83.8401H45.0156V81.9115H46.9441V83.8401ZM48.8727 83.8401H46.9441V81.9115H48.8727V83.8401ZM48.8727 85.7687H46.9441V83.8401H48.8727V85.7687ZM46.9441 85.7687H45.0156V83.8401H46.9441V85.7687ZM48.8727 87.6972H46.9441V85.7687H48.8727V87.6972ZM50.8013 85.7687H48.8727V83.8401H50.8013V85.7687ZM50.8013 87.6972H48.8727V85.7687H50.8013V87.6972ZM50.8013 89.6258H48.8727V87.6972H50.8013V89.6258ZM50.8013 91.5544H48.8727V89.6258H50.8013V91.5544ZM50.8013 93.4829H48.8727V91.5544H50.8013V93.4829ZM50.8013 95.4115H48.8727V93.4829H50.8013V95.4115ZM48.8727 93.4829H46.9441V91.5544H48.8727V93.4829ZM48.8727 91.5544H46.9441V89.6258H48.8727V91.5544ZM48.8727 89.6258H46.9441V87.6972H48.8727V89.6258ZM45.0156 85.7687H43.087V83.8401H45.0156V85.7687ZM45.0156 95.4115H43.087V93.4829H45.0156V95.4115ZM48.8727 95.4115H50.8013V97.3401H48.8727V95.4115ZM45.0156 87.6972H46.9441V89.6258H45.0156V87.6972ZM43.087 87.6972H45.0156V89.6258H43.087V87.6972ZM41.1584 87.6972H43.087V89.6258H41.1584V87.6972ZM39.2298 87.6972H41.1584V89.6258H39.2298V87.6972ZM37.3013 89.6258H39.2298V91.5544H37.3013V89.6258ZM39.2298 89.6258H41.1584V91.5544H39.2298V89.6258ZM45.0156 89.6258H46.9441V91.5544H45.0156V89.6258ZM43.087 89.6258H45.0156V91.5544H43.087V89.6258ZM41.1584 89.6258H43.087V91.5544H41.1584V89.6258ZM52.7349 78.0544H54.6634V79.9829H52.7349V78.0544ZM54.6634 78.0544H56.592V79.9829H54.6634V78.0544ZM54.6634 79.9829H56.592V81.9115H54.6634V79.9829ZM54.6634 81.9115H56.592V83.8401H54.6634V81.9115ZM54.6634 83.8401H56.592V85.7687H54.6634V83.8401ZM52.7349 83.8401H54.6634V85.7687H52.7349V83.8401ZM52.7349 81.9115H54.6634V83.8401H52.7349V81.9115ZM52.7349 79.9829H54.6634V81.9115H52.7349V79.9829ZM52.7349 85.7687H54.6634V87.6972H52.7349V85.7687ZM52.7349 87.6972H54.6634V89.6258H52.7349V87.6972ZM52.7349 89.6258H54.6634V91.5544H52.7349V89.6258ZM52.7349 91.5544H54.6634V93.4829H52.7349V91.5544ZM52.7349 93.4829H54.6634V95.4115H52.7349V93.4829ZM52.7349 95.4115H54.6634V97.3401H52.7349V95.4115ZM54.6634 95.4115H56.592V97.3401H54.6634V95.4115ZM54.6634 93.4829H56.592V95.4115H54.6634V93.4829ZM54.6634 91.5544H56.592V93.4829H54.6634V91.5544ZM54.6634 89.6258H56.592V91.5544H54.6634V89.6258ZM54.6634 87.6972H56.592V89.6258H54.6634V87.6972ZM54.6634 85.7687H56.592V87.6972H54.6634V85.7687ZM56.592 87.6972H58.5206V89.6258H56.592V87.6972ZM58.5206 87.6972H60.4491V89.6258H58.5206V87.6972ZM58.5206 85.7687H60.4491V87.6972H58.5206V85.7687ZM60.4491 85.7687H62.3777V87.6972H60.4491V85.7687ZM60.4491 83.8401H62.3777V85.7687H60.4491V83.8401ZM60.4491 81.9115H62.3777V83.8401H60.4491V81.9115ZM62.3777 81.9115H64.3063V83.8401H62.3777V81.9115ZM62.3777 83.8401H64.3063V85.7687H62.3777V83.8401ZM58.5206 89.6258H60.4491V91.5544H58.5206V89.6258ZM60.4491 89.6258H62.3777V91.5544H60.4491V89.6258ZM62.3777 91.5544H64.3063V93.4829H62.3777V91.5544ZM60.4491 91.5544H62.3777V93.4829H60.4491V91.5544ZM60.4491 93.4829H62.3777V95.4115H60.4491V93.4829ZM62.3777 93.4829H64.3063V95.4115H62.3777V93.4829ZM62.3777 95.4115H64.3063V97.3401H62.3777V95.4115ZM60.4491 95.4115H62.3777V97.3401H60.4491V95.4115ZM70.092 81.9115H72.0206V83.8401H70.092V81.9115ZM68.1634 81.9115H70.092V83.8401H68.1634V81.9115ZM68.1634 83.8401H70.092V85.7687H68.1634V83.8401ZM70.092 83.8401H72.0206V85.7687H70.092V83.8401ZM72.0206 81.9115H73.9491V83.8401H72.0206V81.9115ZM73.9491 81.9115H75.8777V83.8401H73.9491V81.9115ZM75.8777 81.9115H77.8063V83.8401H75.8777V81.9115ZM75.8777 83.8401H77.8063V85.7687H75.8777V83.8401ZM73.9491 83.8401H75.8777V85.7687H73.9491V83.8401ZM77.8063 83.8401H79.7349V85.7687H77.8063V83.8401ZM77.8063 85.7687H79.7349V87.6972H77.8063V85.7687ZM77.8063 93.4829H79.7349V95.4115H77.8063V93.4829ZM75.8777 93.4829H77.8063V95.4115H75.8777V93.4829ZM75.8777 85.7687H77.8063V87.6972H75.8777V85.7687ZM73.9491 93.4829H75.8777V95.4115H73.9491V93.4829ZM75.8777 95.4115H77.8063V97.3401H75.8777V95.4115ZM73.9491 95.4115H75.8777V97.3401H73.9491V95.4115ZM72.0206 95.4115H73.9491V97.3401H72.0206V95.4115ZM70.092 95.4115H72.0206V97.3401H70.092V95.4115ZM68.1634 95.4115H70.092V97.3401H68.1634V95.4115ZM68.1634 93.4829H70.092V95.4115H68.1634V93.4829ZM70.092 93.4829H72.0206V95.4115H70.092V93.4829ZM68.1634 91.5544H70.092V93.4829H68.1634V91.5544ZM66.2349 93.4829H68.1634V95.4115H66.2349V93.4829ZM66.2349 91.5544H68.1634V93.4829H66.2349V91.5544ZM66.2349 89.6258H68.1634V91.5544H66.2349V89.6258ZM66.2349 87.6972H68.1634V89.6258H66.2349V87.6972ZM66.2349 85.7687H68.1634V87.6972H66.2349V85.7687ZM66.2349 83.8401H68.1634V85.7687H66.2349V83.8401ZM68.1634 85.7687H70.092V87.6972H68.1634V85.7687ZM68.1634 87.6972H70.092V89.6258H68.1634V87.6972ZM68.1634 89.6258H70.092V91.5544H68.1634V89.6258ZM72.0206 93.4829H73.9491V95.4115H72.0206V93.4829ZM72.0206 83.8401H73.9491V85.7687H72.0206V83.8401ZM75.8777 87.6972H77.8063V89.6258H75.8777V87.6972ZM77.8063 87.6972H79.7349V89.6258H77.8063V87.6972ZM70.092 89.6258H72.0206V91.5544H70.092V89.6258ZM72.0206 89.6258H73.9491V91.5544H72.0206V89.6258ZM73.9491 89.6258H75.8777V91.5544H73.9491V89.6258ZM75.8777 89.6258H77.8063V91.5544H75.8777V89.6258ZM77.8063 89.6258H79.7349V91.5544H77.8063V89.6258ZM73.9491 87.6972H75.8777V89.6258H73.9491V87.6972ZM72.0206 87.6972H73.9491V89.6258H72.0206V87.6972ZM70.092 87.6972H72.0206V89.6258H70.092V87.6972ZM89.3677 95.4115H91.2962V97.3401H89.3677V95.4115ZM91.2962 95.4115H93.2248V97.3401H91.2962V95.4115ZM91.2962 93.4829H93.2248V95.4115H91.2962V93.4829ZM91.2962 91.5544H93.2248V93.4829H91.2962V91.5544ZM91.2962 89.6258H93.2248V91.5544H91.2962V89.6258ZM91.2962 87.6972H93.2248V89.6258H91.2962V87.6972ZM91.2962 85.7687H93.2248V87.6972H91.2962V85.7687ZM89.3677 85.7687H91.2962V87.6972H89.3677V85.7687ZM89.3677 87.6972H91.2962V89.6258H89.3677V87.6972ZM89.3677 89.6258H91.2962V91.5544H89.3677V89.6258ZM89.3677 91.5544H91.2962V93.4829H89.3677V91.5544ZM89.3677 93.4829H91.2962V95.4115H89.3677V93.4829ZM89.3677 83.8401H91.2962V85.7687H89.3677V83.8401ZM91.2962 83.8401H93.2248V85.7687H91.2962V83.8401ZM91.2962 81.9115H93.2248V83.8401H91.2962V81.9115ZM91.2962 79.9829H93.2248V81.9115H91.2962V79.9829ZM91.2962 78.0544H93.2248V79.9829H91.2962V78.0544ZM89.3677 78.0544H91.2962V79.9829H89.3677V78.0544ZM89.3677 79.9829H91.2962V81.9115H89.3677V79.9829ZM89.3677 81.9115H91.2962V83.8401H89.3677V81.9115ZM102.883 93.4829H104.811V95.4115H102.883V93.4829ZM102.883 95.4115H104.811V97.3401H102.883V95.4115ZM100.954 95.4115H102.883V97.3401H100.954V95.4115ZM100.954 93.4829H102.883V95.4115H100.954V93.4829ZM99.0256 95.4115H100.954V97.3401H99.0256V95.4115ZM99.0256 93.4829H100.954V95.4115H99.0256V93.4829ZM97.097 93.4829H99.0256V95.4115H97.097V93.4829ZM97.097 91.5544H99.0256V93.4829H97.097V91.5544ZM97.097 89.6258H99.0256V91.5544H97.097V89.6258ZM97.097 87.6972H99.0256V89.6258H97.097V87.6972ZM97.097 85.7687H99.0256V87.6972H97.097V85.7687ZM97.097 83.8401H99.0256V85.7687H97.097V83.8401ZM99.0256 89.6258H100.954V91.5544H99.0256V89.6258ZM99.0256 91.5544H100.954V93.4829H99.0256V91.5544ZM99.0256 87.6972H100.954V89.6258H99.0256V87.6972ZM99.0256 85.7687H100.954V87.6972H99.0256V85.7687ZM99.0256 78.0544H100.954V79.9829H99.0256V78.0544ZM99.0256 79.9829H100.954V81.9115H99.0256V79.9829ZM99.0256 81.9115H100.954V83.8401H99.0256V81.9115ZM99.0256 83.8401H100.954V85.7687H99.0256V83.8401ZM97.097 81.9115H99.0256V83.8401H97.097V81.9115ZM95.1685 83.8401H97.097V85.7687H95.1685V83.8401ZM100.954 83.8401H102.883V85.7687H100.954V83.8401ZM102.883 83.8401H104.811V85.7687H102.883V83.8401ZM97.097 79.9829H99.0256V81.9115H97.097V79.9829ZM95.1685 85.7687H97.097V87.6972H95.1685V85.7687ZM100.954 85.7687H102.883V87.6972H100.954V85.7687ZM102.883 85.7687H104.811V87.6972H102.883V85.7687ZM126.006 81.9115H127.934V83.8401H126.006V81.9115ZM124.077 81.9115H126.006V83.8401H124.077V81.9115ZM124.077 79.9829H126.006V81.9115H124.077V79.9829ZM126.006 79.9829H127.934V81.9115H126.006V79.9829ZM124.077 78.0544H126.006V79.9829H124.077V78.0544ZM122.148 78.0544H124.077V79.9829H122.148V78.0544ZM122.148 79.9829H124.077V81.9115H122.148V79.9829ZM120.22 79.9829H122.148V81.9115H120.22V79.9829ZM118.291 79.9829H120.22V81.9115H118.291V79.9829ZM118.291 78.0544H120.22V79.9829H118.291V78.0544ZM116.363 78.0544H118.291V79.9829H116.363V78.0544ZM120.22 78.0544H122.148V79.9829H120.22V78.0544ZM116.363 79.9829H118.291V81.9115H116.363V79.9829ZM114.434 79.9829H116.363V81.9115H114.434V79.9829ZM114.434 81.9115H116.363V83.8401H114.434V81.9115ZM116.363 81.9115H118.291V83.8401H116.363V81.9115ZM116.363 83.8401H118.291V85.7687H116.363V83.8401ZM116.363 85.7687H118.291V87.6972H116.363V85.7687ZM114.434 85.7687H116.363V87.6972H114.434V85.7687ZM114.434 83.8401H116.363V85.7687H114.434V83.8401ZM116.363 87.6972H118.291V89.6258H116.363V87.6972ZM118.291 87.6972H120.22V89.6258H118.291V87.6972ZM118.291 85.7687H120.22V87.6972H118.291V85.7687ZM120.22 85.7687H122.148V87.6972H120.22V85.7687ZM122.148 85.7687H124.077V87.6972H122.148V85.7687ZM124.077 85.7687H126.006V87.6972H124.077V85.7687ZM124.077 87.6972H126.006V89.6258H124.077V87.6972ZM122.148 87.6972H124.077V89.6258H122.148V87.6972ZM120.22 87.6972H122.148V89.6258H120.22V87.6972ZM126.006 87.6972H127.934V89.6258H126.006V87.6972ZM126.006 89.6258H127.934V91.5544H126.006V89.6258ZM124.077 89.6258H126.006V91.5544H124.077V89.6258ZM122.148 93.4829H124.077V95.4115H122.148V93.4829ZM124.077 93.4829H126.006V95.4115H124.077V93.4829ZM124.077 91.5544H126.006V93.4829H124.077V91.5544ZM126.006 91.5544H127.934V93.4829H126.006V91.5544ZM126.006 93.4829H127.934V95.4115H126.006V93.4829ZM124.077 95.4115H126.006V97.3401H124.077V95.4115ZM122.148 95.4115H124.077V97.3401H122.148V95.4115ZM120.22 95.4115H122.148V97.3401H120.22V95.4115ZM118.291 95.4115H120.22V97.3401H118.291V95.4115ZM116.363 95.4115H118.291V97.3401H116.363V95.4115ZM116.363 93.4829H118.291V95.4115H116.363V93.4829ZM118.291 93.4829H120.22V95.4115H118.291V93.4829ZM120.22 93.4829H122.148V95.4115H120.22V93.4829ZM114.434 93.4829H116.363V95.4115H114.434V93.4829ZM114.434 91.5544H116.363V93.4829H114.434V91.5544ZM116.363 91.5544H118.291V93.4829H116.363V91.5544ZM129.868 95.4115H131.796V97.3401H129.868V95.4115ZM131.796 95.4115H133.725V97.3401H131.796V95.4115ZM131.796 93.4829H133.725V95.4115H131.796V93.4829ZM131.796 91.5544H133.725V93.4829H131.796V91.5544ZM131.796 89.6258H133.725V91.5544H131.796V89.6258ZM131.796 87.6972H133.725V89.6258H131.796V87.6972ZM131.796 85.7687H133.725V87.6972H131.796V85.7687ZM129.868 85.7687H131.796V87.6972H129.868V85.7687ZM129.868 87.6972H131.796V89.6258H129.868V87.6972ZM129.868 89.6258H131.796V91.5544H129.868V89.6258ZM129.868 91.5544H131.796V93.4829H129.868V91.5544ZM129.868 93.4829H131.796V95.4115H129.868V93.4829ZM129.868 83.8401H131.796V85.7687H129.868V83.8401ZM131.796 83.8401H133.725V85.7687H131.796V83.8401ZM131.796 81.9115H133.725V83.8401H131.796V81.9115ZM131.796 79.9829H133.725V81.9115H131.796V79.9829ZM131.796 78.0544H133.725V79.9829H131.796V78.0544ZM129.868 78.0544H131.796V79.9829H129.868V78.0544ZM129.868 79.9829H131.796V81.9115H129.868V79.9829ZM129.868 81.9115H131.796V83.8401H129.868V81.9115ZM135.668 95.4115H137.597V97.3401H135.668V95.4115ZM135.668 93.4829H137.597V95.4115H135.668V93.4829ZM135.668 91.5544H137.597V93.4829H135.668V91.5544ZM135.668 89.6258H137.597V91.5544H135.668V89.6258ZM135.668 87.6972H137.597V89.6258H135.668V87.6972ZM135.668 85.7687H137.597V87.6972H135.668V85.7687ZM137.597 85.7687H139.526V87.6972H137.597V85.7687ZM137.597 83.8401H139.526V85.7687H137.597V83.8401ZM137.597 81.9115H139.526V83.8401H137.597V81.9115ZM137.597 79.9829H139.526V81.9115H137.597V79.9829ZM135.668 79.9829H137.597V81.9115H135.668V79.9829ZM135.668 78.0544H137.597V79.9829H135.668V78.0544ZM135.668 81.9115H137.597V83.8401H135.668V81.9115ZM135.668 83.8401H137.597V85.7687H135.668V83.8401ZM137.597 78.0544H139.526V79.9829H137.597V78.0544ZM137.597 87.6972H139.526V89.6258H137.597V87.6972ZM137.597 89.6258H139.526V91.5544H137.597V89.6258ZM137.597 91.5544H139.526V93.4829H137.597V91.5544ZM137.597 93.4829H139.526V95.4115H137.597V93.4829ZM137.597 95.4115H139.526V97.3401H137.597V95.4115ZM139.526 81.9115H141.454V83.8401H139.526V81.9115ZM139.526 83.8401H141.454V85.7687H139.526V83.8401ZM141.454 83.8401H143.383V85.7687H141.454V83.8401ZM141.454 85.7687H143.383V87.6972H141.454V85.7687ZM143.383 85.7687H145.311V87.6972H143.383V85.7687ZM143.383 87.6972H145.311V89.6258H143.383V87.6972ZM145.311 85.7687H147.24V87.6972H145.311V85.7687ZM145.311 83.8401H147.24V85.7687H145.311V83.8401ZM147.24 83.8401H149.168V85.7687H147.24V83.8401ZM147.24 81.9115H149.168V83.8401H147.24V81.9115ZM149.168 78.0544H151.097V79.9829H149.168V78.0544ZM149.168 79.9829H151.097V81.9115H149.168V79.9829ZM149.168 81.9115H151.097V83.8401H149.168V81.9115ZM149.168 83.8401H151.097V85.7687H149.168V83.8401ZM149.168 85.7687H151.097V87.6972H149.168V85.7687ZM149.168 87.6972H151.097V89.6258H149.168V87.6972ZM149.168 89.6258H151.097V91.5544H149.168V89.6258ZM149.168 91.5544H151.097V93.4829H149.168V91.5544ZM149.168 93.4829H151.097V95.4115H149.168V93.4829ZM149.168 95.4115H151.097V97.3401H149.168V95.4115ZM151.097 95.4115H153.026V97.3401H151.097V95.4115ZM151.097 93.4829H153.026V95.4115H151.097V93.4829ZM151.097 91.5544H153.026V93.4829H151.097V91.5544ZM151.097 89.6258H153.026V91.5544H151.097V89.6258ZM151.097 87.6972H153.026V89.6258H151.097V87.6972ZM151.097 85.7687H153.026V87.6972H151.097V85.7687ZM151.097 83.8401H153.026V85.7687H151.097V83.8401ZM151.097 81.9115H153.026V83.8401H151.097V81.9115ZM151.097 79.9829H153.026V81.9115H151.097V79.9829ZM151.097 78.0544H153.026V79.9829H151.097V78.0544ZM139.526 79.9829H141.454V81.9115H139.526V79.9829ZM141.454 81.9115H143.383V83.8401H141.454V81.9115ZM143.383 83.8401H145.311V85.7687H143.383V83.8401ZM145.311 81.9115H147.24V83.8401H145.311V81.9115ZM147.24 79.9829H149.168V81.9115H147.24V79.9829ZM154.969 83.8401H156.898V85.7687H154.969V83.8401ZM154.969 81.9115H156.898V83.8401H154.969V81.9115ZM156.898 81.9115H158.826V83.8401H156.898V81.9115ZM156.898 83.8401H158.826V85.7687H156.898V83.8401ZM156.898 85.7687H158.826V87.6972H156.898V85.7687ZM156.898 87.6972H158.826V89.6258H156.898V87.6972ZM156.898 89.6258H158.826V91.5544H156.898V89.6258ZM154.969 89.6258H156.898V91.5544H154.969V89.6258ZM154.969 87.6972H156.898V89.6258H154.969V87.6972ZM154.969 85.7687H156.898V87.6972H154.969V85.7687ZM154.969 91.5544H156.898V93.4829H154.969V91.5544ZM156.898 91.5544H158.826V93.4829H156.898V91.5544ZM156.898 93.4829H158.826V95.4115H156.898V93.4829ZM156.898 95.4115H158.826V97.3401H156.898V95.4115ZM154.969 95.4115H156.898V97.3401H154.969V95.4115ZM154.969 93.4829H156.898V95.4115H154.969V93.4829ZM164.612 95.4115H166.541V97.3401H164.612V95.4115ZM166.541 93.4829H168.469V95.4115H166.541V93.4829ZM166.541 91.5544H168.469V93.4829H166.541V91.5544ZM166.541 89.6258H168.469V91.5544H166.541V89.6258ZM166.541 87.6972H168.469V89.6258H166.541V87.6972ZM166.541 85.7687H168.469V87.6972H166.541V85.7687ZM166.541 83.8401H168.469V85.7687H166.541V83.8401ZM164.612 87.6972H166.541V89.6258H164.612V87.6972ZM164.612 89.6258H166.541V91.5544H164.612V89.6258ZM164.612 91.5544H166.541V93.4829H164.612V91.5544ZM164.612 93.4829H166.541V95.4115H164.612V93.4829ZM164.612 85.7687H166.541V87.6972H164.612V85.7687ZM158.826 83.8401H160.755V85.7687H158.826V83.8401ZM160.755 83.8401H162.684V85.7687H160.755V83.8401ZM162.684 83.8401H164.612V85.7687H162.684V83.8401ZM162.684 81.9115H164.612V83.8401H162.684V81.9115ZM164.612 81.9115H166.541V83.8401H164.612V81.9115ZM164.612 83.8401H166.541V85.7687H164.612V83.8401ZM160.755 81.9115H162.684V83.8401H160.755V81.9115ZM158.826 95.4115H160.755V97.3401H158.826V95.4115ZM160.755 95.4115H162.684V97.3401H160.755V95.4115ZM162.684 95.4115H164.612V97.3401H162.684V95.4115ZM162.684 93.4829H164.612V95.4115H162.684V93.4829ZM160.755 93.4829H162.684V95.4115H160.755V93.4829ZM158.826 93.4829H160.755V95.4115H158.826V93.4829ZM154.969 97.3401H156.898V99.2687H154.969V97.3401ZM156.898 97.3401H158.826V99.2687H156.898V97.3401ZM156.898 99.2687H158.826V101.197H156.898V99.2687ZM154.969 99.2687H156.898V101.197H154.969V99.2687ZM170.403 78.0544H172.331V79.9829H170.403V78.0544ZM172.331 78.0544H174.26V79.9829H172.331V78.0544ZM172.331 79.9829H174.26V81.9115H172.331V79.9829ZM172.331 81.9115H174.26V83.8401H172.331V81.9115ZM172.331 83.8401H174.26V85.7687H172.331V83.8401ZM170.403 83.8401H172.331V85.7687H170.403V83.8401ZM170.403 81.9115H172.331V83.8401H170.403V81.9115ZM170.403 79.9829H172.331V81.9115H170.403V79.9829ZM170.403 85.7687H172.331V87.6972H170.403V85.7687ZM170.403 87.6972H172.331V89.6258H170.403V87.6972ZM170.403 89.6258H172.331V91.5544H170.403V89.6258ZM172.331 87.6972H174.26V89.6258H172.331V87.6972ZM172.331 85.7687H174.26V87.6972H172.331V85.7687ZM172.331 89.6258H174.26V91.5544H172.331V89.6258ZM172.331 91.5544H174.26V93.4829H172.331V91.5544ZM170.403 93.4829H172.331V95.4115H170.403V93.4829ZM170.403 91.5544H172.331V93.4829H170.403V91.5544ZM170.403 95.4115H172.331V97.3401H170.403V95.4115ZM172.331 95.4115H174.26V97.3401H172.331V95.4115ZM172.331 93.4829H174.26V95.4115H172.331V93.4829ZM174.26 95.4115H176.189V97.3401H174.26V95.4115ZM176.189 95.4115H178.117V97.3401H176.189V95.4115ZM178.117 95.4115H180.046V97.3401H178.117V95.4115ZM178.117 93.4829H180.046V95.4115H178.117V93.4829ZM176.189 93.4829H178.117V95.4115H176.189V93.4829ZM174.26 93.4829H176.189V95.4115H174.26V93.4829ZM185.826 81.9115H187.755V83.8401H185.826V81.9115ZM183.898 81.9115H185.826V83.8401H183.898V81.9115ZM183.898 83.8401H185.826V85.7687H183.898V83.8401ZM185.826 83.8401H187.755V85.7687H185.826V83.8401ZM187.755 81.9115H189.684V83.8401H187.755V81.9115ZM189.684 81.9115H191.612V83.8401H189.684V81.9115ZM191.612 81.9115H193.541V83.8401H191.612V81.9115ZM191.612 83.8401H193.541V85.7687H191.612V83.8401ZM189.684 83.8401H191.612V85.7687H189.684V83.8401ZM193.541 83.8401H195.469V85.7687H193.541V83.8401ZM193.541 85.7687H195.469V87.6972H193.541V85.7687ZM193.541 93.4829H195.469V95.4115H193.541V93.4829ZM191.612 93.4829H193.541V95.4115H191.612V93.4829ZM191.612 85.7687H193.541V87.6972H191.612V85.7687ZM189.684 93.4829H191.612V95.4115H189.684V93.4829ZM191.612 95.4115H193.541V97.3401H191.612V95.4115ZM189.684 95.4115H191.612V97.3401H189.684V95.4115ZM187.755 95.4115H189.684V97.3401H187.755V95.4115ZM185.826 95.4115H187.755V97.3401H185.826V95.4115ZM183.898 95.4115H185.826V97.3401H183.898V95.4115ZM183.898 93.4829H185.826V95.4115H183.898V93.4829ZM185.826 93.4829H187.755V95.4115H185.826V93.4829ZM183.898 91.5544H185.826V93.4829H183.898V91.5544ZM181.969 93.4829H183.898V95.4115H181.969V93.4829ZM181.969 91.5544H183.898V93.4829H181.969V91.5544ZM181.969 89.6258H183.898V91.5544H181.969V89.6258ZM181.969 87.6972H183.898V89.6258H181.969V87.6972ZM181.969 85.7687H183.898V87.6972H181.969V85.7687ZM181.969 83.8401H183.898V85.7687H181.969V83.8401ZM183.898 85.7687H185.826V87.6972H183.898V85.7687ZM183.898 87.6972H185.826V89.6258H183.898V87.6972ZM183.898 89.6258H185.826V91.5544H183.898V89.6258ZM187.755 93.4829H189.684V95.4115H187.755V93.4829ZM187.755 83.8401H189.684V85.7687H187.755V83.8401ZM191.612 87.6972H193.541V89.6258H191.612V87.6972ZM193.541 87.6972H195.469V89.6258H193.541V87.6972ZM185.826 89.6258H187.755V91.5544H185.826V89.6258ZM187.755 89.6258H189.684V91.5544H187.755V89.6258ZM189.684 89.6258H191.612V91.5544H189.684V89.6258ZM191.612 89.6258H193.541V91.5544H191.612V89.6258ZM193.541 89.6258H195.469V91.5544H193.541V89.6258ZM189.684 87.6972H191.612V89.6258H189.684V87.6972ZM187.755 87.6972H189.684V89.6258H187.755V87.6972ZM185.826 87.6972H187.755V89.6258H185.826V87.6972Z" fill="white"/>
<path d="M1.5 103.704L151.541 103.704M212 76.1404C209.386 86.8822 207.92 92.9047 205.305 103.647L164.099 103.691" stroke="white" stroke-width="3" stroke-linecap="round"/>
<path d="M212 78.0013L220.5 131.34L248.5 0.340088L263 62.6398" stroke="white" stroke-width="3" stroke-linecap="round"/>
</svg>
